<svg version="1.1" viewBox="0 0 512 512" class="snipdown snipdown-strikethrough" aria-hidden="true" width="16" height="16"><g><path fill-rule="evenodd" d="M274.851,236l-9.084-4.735C216.654,205.665,176,179.623,176,120c0-44.112,35.888-80,80-80s80,35.888,80,80v20h40v-20 C376,53.832,322.168,0,256,0S136,53.832,136,120c0,37.679,11.893,68.705,36.358,94.851c7.336,7.839,15.458,14.819,23.947,21.149H0 v40h512v-40H274.851z"/></g><g><path fill-rule="evenodd" d="M380.201,316h-46.259C345.914,332.251,353,352.312,353,374c0,54.038-43.962,98-98,98c-54.038,0-98-43.962-98-98v-20h-40 v20c0,76.093,61.907,138,138,138s138-61.907,138-138C393,353.294,388.407,333.644,380.201,316z"/></g></svg>